<?xml version="1.0" encoding="iso-8859-1"?>
<!-- Generator: Adobe Illustrator 18.0.0, SVG Export Plug-In . SVG Version: 6.00 Build 0)  -->
<!DOCTYPE svg PUBLIC "-//W3C//DTD SVG 1.1//EN" "http://www.w3.org/Graphics/SVG/1.1/DTD/svg11.dtd">
<svg version="1.1" id="Layer_1" xmlns="http://www.w3.org/2000/svg" xmlns:xlink="http://www.w3.org/1999/xlink" x="0px" y="0px"
	 viewBox="0 0 408.5 174" style="enable-background:new 0 0 408.5 174;" xml:space="preserve">
<image style="display:none;overflow:visible;" width="472" height="236" xlink:href="foundation-demo/img/logo.jpg"  transform="matrix(0.8675 0 0 0.8675 12 0)">
</image>
<polygon style="fill:#FF0000;stroke:#FFFFFF;stroke-miterlimit:10;" points="264.833,20.542 232.583,154.854 233.125,156.51 
	235.604,156.964 238.427,157.44 242.672,158.012 246.836,158.673 245.001,169.42 236.001,169.251 227,168.5 202,168.5 
	190.75,169.419 191.5,162.083 205.083,156.75 207.417,156.083 240.833,20.417 240.667,18.75 239.667,17.583 238,16.583 
	235.667,15.75 232.417,15.5 229,15.5 227,15.5 226,15.5 229.5,4.333 239,5 243,5.583 247.75,6.125 251.583,6.5 256,6.5 262,6.25 
	285.5,4.333 283.417,13.417 282.167,14 275.167,16.167 270.083,17.917 265.917,19.25 265.167,19.833 "/>
<polygon style="fill:#FF0000;stroke:#FFFFFF;stroke-miterlimit:10;" points="191.833,20.542 159.583,154.854 160.125,156.51 
	162.604,156.964 165.427,157.44 169.672,158.012 173.836,158.673 172.001,169.42 163.001,169.251 154,168.5 129,168.5 
	117.75,169.419 118.5,162.083 133.083,156.75 134.417,156.083 167.833,20.417 167.667,18.75 166.667,17.583 165,16.583 
	162.667,15.75 159.417,15.5 156,15.5 154,15.5 153,15.5 156.5,4.333 166,5 170,5.583 174.75,6.125 178.583,6.5 183,6.5 189,6.25 
	212.5,4.333 210.417,13.417 209.167,14 202.167,16.167 197.083,17.917 192.917,19.25 192.167,19.833 "/>
<path style="fill:#FFFFFF;stroke:#FFFFFF;stroke-miterlimit:10;" d="M391.833,132.667h-375.5c-6.6,0-12-5.4-12-12V57
	c0-6.6,5.4-12,12-12h375.5c6.6,0,12,5.4,12,12v63.667C403.833,127.267,398.433,132.667,391.833,132.667z"/>
<polygon style="fill:#0000FF;stroke:#FFFFFF;stroke-miterlimit:10;" points="27.792,64.5 17.583,115.5 27,115.5 37,115.5 47,115.5 
	58.083,64.5 48,64.5 37.833,64.5 "/>
<polygon style="fill:#FFFFFF;stroke:#FFFFFF;stroke-miterlimit:10;" points="34,82.5 37.833,64.5 48,64.5 44.417,82.5 "/>
<polygon style="fill:#FFFFFF;stroke:#FFFFFF;stroke-miterlimit:10;" points="37.167,115.667 41,95.5 32,95.5 31,95.5 27,115.5 "/>
<polygon style="fill:#0000FF;stroke:#FFFFFF;stroke-miterlimit:10;" points="63,64.5 74,64.5 63,115.5 52,115.5 "/>
<path style="fill:#0000FF;stroke:#FFFFFF;stroke-miterlimit:10;" d="M79.958,64.417L69.833,115.5H80l3.583-18.167L84,96.667
	l0.583-0.167H85l1.167,0.083l1.084,0.083c1.137,0.071,2.29,0.267,3.43,0.128c2.106-0.258,4.562-1.484,6.054-2.981
	c2.793-2.802,4.305-6.508,5.289-10.278c0.823-3.153,1.585-6.404,1.486-9.684c-0.062-2.06-0.705-4.004-1.722-5.784
	c-2.099-3.674-6.729-3.962-10.504-3.864C90.205,64.232,79.996,64.226,79.958,64.417z"/>
<path style="fill:#FFFFFF;stroke:#FFFFFF;stroke-miterlimit:10;" d="M86.792,75.5c-0.001,0.003-2.458,11-2.458,11s1.65,0,1.667,0
	c3.198,0,5.85-1.83,7.103-4.751c1.231-2.867,0.403-6.029-3.114-6.25C89.662,75.478,86.838,75.291,86.792,75.5z"/>
<polygon style="fill:#0000FF;stroke:#FFFFFF;stroke-miterlimit:10;" points="110,64.5 137,64.5 134.667,76.5 118,76.5 117.083,82.5 
	132,82.5 130,94.5 115,94.5 112.917,104.5 129,104.5 126.917,115.5 100,115.5 "/>
<path style="fill:#0000FF;stroke:#FFFFFF;stroke-miterlimit:10;" d="M140.917,64.333c0,0.002-9.083,51.167-9.083,51.167
	s9.875,0,10.161,0c0.521-0.005,1.244-5.99,1.327-6.491c0.493-2.997,0.944-6.138,1.416-9.191c0.207-1.342,0.237-2.932,1.005-4.105
	c0.596-0.911,1.786-1.105,2.663-0.473c1.105,0.797,1.008,2.382,1.021,3.587c0.015,1.404,0.745,16.672,1.325,16.672
	c0.002,0,10.749,0,10.75,0c0.299,0-0.57-10.482-0.71-11.472c-0.478-3.392-1.509-6.546-2.531-9.797
	c-0.275-0.874-0.218-0.734,0.449-1.195c0.434-0.3,0.862-0.608,1.283-0.926c0.641-0.484,1.358-0.962,1.92-1.54
	c3.183-3.273,4.898-8.057,5.48-12.523c0.507-3.885,0.436-8.819-2.58-11.751c-2.219-2.158-5.79-2.085-8.662-1.985
	C154.457,64.369,140.97,64.031,140.917,64.333z"/>
<path style="fill:#FFFFFF;stroke:#FFFFFF;stroke-miterlimit:10;" d="M148.819,73.21c0,0-1.903,11.289-1.903,11.289
	c3.316,0,6.519,0.252,8.668-2.786c1.111-1.571,1.5-3.621,1.042-5.483C155.706,72.494,151.796,73.21,148.819,73.21z"/>
<path style="fill:#0000FF;stroke:#FFFFFF;stroke-miterlimit:10;" d="M199.649,79.832c0,0-8.605,2.455-8.605,2.455
	c-0.571-2.373-0.997-5.208-4.113-5.285c-1.524-0.038-2.982,0.747-4.026,1.841c-2.49,2.609-3.604,6.191-4.25,9.637
	c-0.52,2.774-0.93,5.577-1.052,8.398c-0.09,2.098-0.504,5.215,1.549,6.59c2.43,1.629,4.825-0.897,6.069-2.778
	c0.27-0.409,0.482-0.862,0.706-1.297c0.372-0.725,0.732-1.457,1.081-2.193c0.481-1.016,0.854-2.066,1.233-3.121
	c1.057,0.46,2.119,0.908,3.149,1.424c0.931,0.466,1.857,0.943,2.777,1.43c0.455,0.241,0.908,0.485,1.359,0.732
	c0.223,0.122,0.465,0.232,0.676,0.373c0.166,0.111,0.173,0.246,0.128,0.442c-0.338,1.466-0.918,2.869-1.499,4.257
	c-0.265,0.632-0.523,1.274-0.832,1.887c-1.032,2.047-2.321,3.98-3.861,5.692c-2.97,3.301-7.116,5.898-11.752,5.562
	c-3.829-0.278-6.525-2.613-8.419-5.725c-2.297-3.774-2.706-7.842-2.504-12.179c0.267-5.711,1.213-11.422,3.22-16.786
	c2.841-7.593,8.132-16.918,17.547-16.819c3.556,0.037,7.157,1.696,9.175,4.632C199.573,72.157,199.649,76.158,199.649,79.832z"/>
<polygon style="fill:#0000FF;stroke:#FFFFFF;stroke-miterlimit:10;" points="215.188,65.063 194.125,115.5 205,115.5 207.723,107.5 
	216.5,107.5 216.5,116.5 227.5,116.5 227.5,65 "/>
<polygon style="fill:#FFFFFF;stroke:#FFFFFF;stroke-miterlimit:10;" points="217.188,81.5 211.417,95.5 216.957,95.5 "/>
<polygon style="fill:#0000FF;stroke:#FFFFFF;stroke-miterlimit:10;" points="232,50.5 224,50.5 218.188,61.5 223,61.5 "/>
<polygon style="fill:#0000FF;stroke:#FFFFFF;stroke-miterlimit:10;" points="250.667,64.583 242.667,103.667 257.625,103.75 
	255,115.5 230.375,115.5 240.375,65 240.469,64.484 "/>
<path style="fill:#0000FF;stroke:#FFFFFF;stroke-miterlimit:10;" d="M293.649,80.445c0,0-8.605,2.455-8.605,2.455
	c-0.571-2.373-0.997-5.208-4.113-5.285c-1.524-0.038-2.982,0.747-4.026,1.841c-2.49,2.609-3.604,6.191-4.25,9.637
	c-0.52,2.774-0.93,5.577-1.052,8.398c-0.09,2.098-0.504,5.215,1.549,6.59c2.43,1.629,4.825-0.897,6.069-2.778
	c0.27-0.409,0.483-0.862,0.706-1.297c0.372-0.725,0.732-1.457,1.081-2.193c0.481-1.016,0.854-2.066,1.233-3.121
	c1.057,0.46,2.119,0.908,3.149,1.424c0.931,0.466,1.857,0.943,2.777,1.43c0.455,0.241,0.908,0.485,1.359,0.732
	c0.223,0.122,0.465,0.232,0.676,0.373c0.166,0.111,0.173,0.246,0.128,0.442c-0.338,1.466-0.918,2.869-1.499,4.257
	c-0.265,0.632-0.523,1.274-0.832,1.887c-1.032,2.047-2.321,3.98-3.861,5.692c-2.97,3.301-7.116,5.898-11.752,5.562
	c-3.829-0.278-6.525-2.613-8.419-5.725c-2.297-3.774-2.706-7.842-2.504-12.179c0.267-5.711,1.213-11.422,3.22-16.786
	c2.841-7.593,8.132-16.918,17.547-16.819c3.556,0.037,7.157,1.696,9.175,4.632C293.573,72.771,293.649,76.771,293.649,80.445z"/>
<path style="fill:#0000FF;stroke:#FFFFFF;stroke-miterlimit:10;" d="M312,64.5c0,0-10,0-10,0c-1.073,4.952-2.147,9.904-3.22,14.855
	c-1.507,6.955-3.4,13.965-4.23,21.04c-0.199,1.694-0.293,3.405-0.174,5.109c0.327,4.674,2.455,9.5,7.357,10.731
	c4.967,1.247,10.463,0.401,14.52-2.83c4.367-3.479,6.693-8.966,8.093-14.218c0.492-1.847,0.895-3.717,1.288-5.587
	c1.365-6.495,2.73-12.991,4.095-19.486c0.673-3.205,1.347-6.41,2.02-9.614c0,0-9.75,0-9.75,0c-1.063,4.708-2.125,9.415-3.188,14.123
	c-1.42,6.29-2.819,12.586-4.26,18.872c-0.495,2.16-1.325,4.489-3.061,5.972c-0.767,0.655-1.73,1.109-2.738,1.148
	c-1.119,0.043-2.246-0.451-2.973-1.303c-1.177-1.378-1.044-3.693-0.888-5.392c0.211-2.3,0.875-4.526,1.36-6.776
	c0.768-3.56,1.536-7.12,2.304-10.68c1.143-5.296,2.285-10.593,3.428-15.889C311.985,64.571,311.997,64.5,312,64.5z"/>
<polygon style="fill:#0000FF;stroke:#FFFFFF;stroke-miterlimit:10;" points="347.667,64.583 339.667,103.667 354.625,103.75 
	352,115.5 327.375,115.5 337.375,65 337.469,64.484 "/>
<path style="fill:#0000FF;stroke:#FFFFFF;stroke-miterlimit:10;" d="M380.359,64.644c-4.789,0.011-9.897,2.767-13.038,6.404
	c-2.604,3.016-4.39,6.646-5.763,10.372c-1.848,5.015-2.995,10.282-3.4,15.605c-0.382,5.018,0.049,10.492,3.332,14.337
	c1.815,2.126,4.423,3.574,7.203,4.001c9.706,1.489,17.144-8.119,19.805-16.245c1.572-4.802,2.308-9.818,2.848-14.822
	c0.514-4.758,0.439-9.776-1.858-14.111C387.634,66.684,384.423,64.635,380.359,64.644z"/>
<path style="fill:#FFFFFF;stroke:#FFFFFF;stroke-miterlimit:10;" d="M382.389,84.729c-0.619,5.454-2.168,10.511-4.355,15.529
	c-0.676,1.561-1.571,3.085-2.961,4.085c-1.39,1-3.362,1.372-4.868,0.538c-1.162-0.644-1.876-1.886-2.158-3.174
	c-0.664-2.941,0.018-6.452,0.573-9.357c0.604-3.204,1.526-6.338,2.616-9.418c0.817-2.287,1.918-4.716,3.856-6.32
	c0.964-0.802,2.239-1.315,3.484-1.119c0.189,0.036,0.378,0.081,0.547,0.126C382.684,76.684,382.723,81.837,382.389,84.729z"/>
</svg>
